<mxfile host="app.diagrams.net" agent="Mozilla/5.0 (Windows NT 10.0; Win64; x64) AppleWebKit/537.36 (KHTML, like Gecko) Chrome/135.0.0.0 Safari/537.36" version="26.2.9">
  <diagram name="PÃ¡gina-1" id="D-boOAsGfFh3GiEY3ESO">
    <mxGraphModel dx="927" dy="531" grid="1" gridSize="10" guides="1" tooltips="1" connect="1" arrows="1" fold="1" page="1" pageScale="1" pageWidth="827" pageHeight="1169" math="0" shadow="0">
      <root>
        <mxCell id="0" />
        <mxCell id="1" parent="0" />
        <mxCell id="4oo5xsjGP5_QkXPqTpkd-5" value="Cafe" style="swimlane;fontStyle=0;childLayout=stackLayout;horizontal=1;startSize=26;fillColor=none;horizontalStack=0;resizeParent=1;resizeParentMax=0;resizeLast=0;collapsible=1;marginBottom=0;whiteSpace=wrap;html=1;" vertex="1" parent="1">
          <mxGeometry x="50" y="270" width="140" height="78" as="geometry" />
        </mxCell>
        <mxCell id="4oo5xsjGP5_QkXPqTpkd-6" value="+getDescripcion()" style="text;strokeColor=none;fillColor=none;align=left;verticalAlign=top;spacingLeft=4;spacingRight=4;overflow=hidden;rotatable=0;points=[[0,0.5],[1,0.5]];portConstraint=eastwest;whiteSpace=wrap;html=1;" vertex="1" parent="4oo5xsjGP5_QkXPqTpkd-5">
          <mxGeometry y="26" width="140" height="26" as="geometry" />
        </mxCell>
        <mxCell id="4oo5xsjGP5_QkXPqTpkd-7" value="+getPrecio()" style="text;strokeColor=none;fillColor=none;align=left;verticalAlign=top;spacingLeft=4;spacingRight=4;overflow=hidden;rotatable=0;points=[[0,0.5],[1,0.5]];portConstraint=eastwest;whiteSpace=wrap;html=1;" vertex="1" parent="4oo5xsjGP5_QkXPqTpkd-5">
          <mxGeometry y="52" width="140" height="26" as="geometry" />
        </mxCell>
        <mxCell id="4oo5xsjGP5_QkXPqTpkd-9" value="Te" style="swimlane;fontStyle=0;childLayout=stackLayout;horizontal=1;startSize=26;fillColor=none;horizontalStack=0;resizeParent=1;resizeParentMax=0;resizeLast=0;collapsible=1;marginBottom=0;whiteSpace=wrap;html=1;" vertex="1" parent="1">
          <mxGeometry x="220" y="270" width="140" height="78" as="geometry" />
        </mxCell>
        <mxCell id="4oo5xsjGP5_QkXPqTpkd-10" value="+getDescripcion()" style="text;strokeColor=none;fillColor=none;align=left;verticalAlign=top;spacingLeft=4;spacingRight=4;overflow=hidden;rotatable=0;points=[[0,0.5],[1,0.5]];portConstraint=eastwest;whiteSpace=wrap;html=1;" vertex="1" parent="4oo5xsjGP5_QkXPqTpkd-9">
          <mxGeometry y="26" width="140" height="26" as="geometry" />
        </mxCell>
        <mxCell id="4oo5xsjGP5_QkXPqTpkd-11" value="+getPrecio()" style="text;strokeColor=none;fillColor=none;align=left;verticalAlign=top;spacingLeft=4;spacingRight=4;overflow=hidden;rotatable=0;points=[[0,0.5],[1,0.5]];portConstraint=eastwest;whiteSpace=wrap;html=1;" vertex="1" parent="4oo5xsjGP5_QkXPqTpkd-9">
          <mxGeometry y="52" width="140" height="26" as="geometry" />
        </mxCell>
        <mxCell id="4oo5xsjGP5_QkXPqTpkd-12" value="Leche" style="swimlane;fontStyle=0;childLayout=stackLayout;horizontal=1;startSize=26;fillColor=none;horizontalStack=0;resizeParent=1;resizeParentMax=0;resizeLast=0;collapsible=1;marginBottom=0;whiteSpace=wrap;html=1;" vertex="1" parent="1">
          <mxGeometry x="340" y="10" width="140" height="78" as="geometry" />
        </mxCell>
        <mxCell id="4oo5xsjGP5_QkXPqTpkd-13" value="+getDescripcion()" style="text;strokeColor=none;fillColor=none;align=left;verticalAlign=top;spacingLeft=4;spacingRight=4;overflow=hidden;rotatable=0;points=[[0,0.5],[1,0.5]];portConstraint=eastwest;whiteSpace=wrap;html=1;" vertex="1" parent="4oo5xsjGP5_QkXPqTpkd-12">
          <mxGeometry y="26" width="140" height="26" as="geometry" />
        </mxCell>
        <mxCell id="4oo5xsjGP5_QkXPqTpkd-14" value="+getPrecio()" style="text;strokeColor=none;fillColor=none;align=left;verticalAlign=top;spacingLeft=4;spacingRight=4;overflow=hidden;rotatable=0;points=[[0,0.5],[1,0.5]];portConstraint=eastwest;whiteSpace=wrap;html=1;" vertex="1" parent="4oo5xsjGP5_QkXPqTpkd-12">
          <mxGeometry y="52" width="140" height="26" as="geometry" />
        </mxCell>
        <mxCell id="4oo5xsjGP5_QkXPqTpkd-15" value="Azucar" style="swimlane;fontStyle=0;childLayout=stackLayout;horizontal=1;startSize=26;fillColor=none;horizontalStack=0;resizeParent=1;resizeParentMax=0;resizeLast=0;collapsible=1;marginBottom=0;whiteSpace=wrap;html=1;" vertex="1" parent="1">
          <mxGeometry x="490" y="10" width="140" height="78" as="geometry" />
        </mxCell>
        <mxCell id="4oo5xsjGP5_QkXPqTpkd-16" value="+getDescripcion()" style="text;strokeColor=none;fillColor=none;align=left;verticalAlign=top;spacingLeft=4;spacingRight=4;overflow=hidden;rotatable=0;points=[[0,0.5],[1,0.5]];portConstraint=eastwest;whiteSpace=wrap;html=1;" vertex="1" parent="4oo5xsjGP5_QkXPqTpkd-15">
          <mxGeometry y="26" width="140" height="26" as="geometry" />
        </mxCell>
        <mxCell id="4oo5xsjGP5_QkXPqTpkd-17" value="+getPrecio()" style="text;strokeColor=none;fillColor=none;align=left;verticalAlign=top;spacingLeft=4;spacingRight=4;overflow=hidden;rotatable=0;points=[[0,0.5],[1,0.5]];portConstraint=eastwest;whiteSpace=wrap;html=1;" vertex="1" parent="4oo5xsjGP5_QkXPqTpkd-15">
          <mxGeometry y="52" width="140" height="26" as="geometry" />
        </mxCell>
        <mxCell id="4oo5xsjGP5_QkXPqTpkd-18" value="Canela" style="swimlane;fontStyle=0;childLayout=stackLayout;horizontal=1;startSize=26;fillColor=none;horizontalStack=0;resizeParent=1;resizeParentMax=0;resizeLast=0;collapsible=1;marginBottom=0;whiteSpace=wrap;html=1;" vertex="1" parent="1">
          <mxGeometry x="640" y="10" width="140" height="78" as="geometry" />
        </mxCell>
        <mxCell id="4oo5xsjGP5_QkXPqTpkd-19" value="+getDescripcion()" style="text;strokeColor=none;fillColor=none;align=left;verticalAlign=top;spacingLeft=4;spacingRight=4;overflow=hidden;rotatable=0;points=[[0,0.5],[1,0.5]];portConstraint=eastwest;whiteSpace=wrap;html=1;" vertex="1" parent="4oo5xsjGP5_QkXPqTpkd-18">
          <mxGeometry y="26" width="140" height="26" as="geometry" />
        </mxCell>
        <mxCell id="4oo5xsjGP5_QkXPqTpkd-20" value="+getPrecio()" style="text;strokeColor=none;fillColor=none;align=left;verticalAlign=top;spacingLeft=4;spacingRight=4;overflow=hidden;rotatable=0;points=[[0,0.5],[1,0.5]];portConstraint=eastwest;whiteSpace=wrap;html=1;" vertex="1" parent="4oo5xsjGP5_QkXPqTpkd-18">
          <mxGeometry y="52" width="140" height="26" as="geometry" />
        </mxCell>
        <mxCell id="4oo5xsjGP5_QkXPqTpkd-21" value="Decorator" style="swimlane;fontStyle=0;childLayout=stackLayout;horizontal=1;startSize=26;fillColor=none;horizontalStack=0;resizeParent=1;resizeParentMax=0;resizeLast=0;collapsible=1;marginBottom=0;whiteSpace=wrap;html=1;" vertex="1" parent="1">
          <mxGeometry x="490" y="150" width="140" height="104" as="geometry" />
        </mxCell>
        <mxCell id="4oo5xsjGP5_QkXPqTpkd-22" value="-bebida:Bebida" style="text;strokeColor=none;fillColor=none;align=left;verticalAlign=top;spacingLeft=4;spacingRight=4;overflow=hidden;rotatable=0;points=[[0,0.5],[1,0.5]];portConstraint=eastwest;whiteSpace=wrap;html=1;" vertex="1" parent="4oo5xsjGP5_QkXPqTpkd-21">
          <mxGeometry y="26" width="140" height="26" as="geometry" />
        </mxCell>
        <mxCell id="4oo5xsjGP5_QkXPqTpkd-23" value="+getDescipcion()" style="text;strokeColor=none;fillColor=none;align=left;verticalAlign=top;spacingLeft=4;spacingRight=4;overflow=hidden;rotatable=0;points=[[0,0.5],[1,0.5]];portConstraint=eastwest;whiteSpace=wrap;html=1;" vertex="1" parent="4oo5xsjGP5_QkXPqTpkd-21">
          <mxGeometry y="52" width="140" height="26" as="geometry" />
        </mxCell>
        <mxCell id="4oo5xsjGP5_QkXPqTpkd-25" value="+getPrecio()" style="text;strokeColor=none;fillColor=none;align=left;verticalAlign=top;spacingLeft=4;spacingRight=4;overflow=hidden;rotatable=0;points=[[0,0.5],[1,0.5]];portConstraint=eastwest;whiteSpace=wrap;html=1;" vertex="1" parent="4oo5xsjGP5_QkXPqTpkd-21">
          <mxGeometry y="78" width="140" height="26" as="geometry" />
        </mxCell>
        <mxCell id="4oo5xsjGP5_QkXPqTpkd-26" value="Bebida" style="swimlane;fontStyle=0;childLayout=stackLayout;horizontal=1;startSize=26;fillColor=none;horizontalStack=0;resizeParent=1;resizeParentMax=0;resizeLast=0;collapsible=1;marginBottom=0;whiteSpace=wrap;html=1;" vertex="1" parent="1">
          <mxGeometry x="290" y="430" width="140" height="130" as="geometry" />
        </mxCell>
        <mxCell id="4oo5xsjGP5_QkXPqTpkd-30" value="+nombre" style="text;strokeColor=none;fillColor=none;align=left;verticalAlign=top;spacingLeft=4;spacingRight=4;overflow=hidden;rotatable=0;points=[[0,0.5],[1,0.5]];portConstraint=eastwest;whiteSpace=wrap;html=1;" vertex="1" parent="4oo5xsjGP5_QkXPqTpkd-26">
          <mxGeometry y="26" width="140" height="26" as="geometry" />
        </mxCell>
        <mxCell id="4oo5xsjGP5_QkXPqTpkd-31" value="+precio" style="text;strokeColor=none;fillColor=none;align=left;verticalAlign=top;spacingLeft=4;spacingRight=4;overflow=hidden;rotatable=0;points=[[0,0.5],[1,0.5]];portConstraint=eastwest;whiteSpace=wrap;html=1;" vertex="1" parent="4oo5xsjGP5_QkXPqTpkd-26">
          <mxGeometry y="52" width="140" height="26" as="geometry" />
        </mxCell>
        <mxCell id="4oo5xsjGP5_QkXPqTpkd-27" value="+getDescripcion()" style="text;strokeColor=none;fillColor=none;align=left;verticalAlign=top;spacingLeft=4;spacingRight=4;overflow=hidden;rotatable=0;points=[[0,0.5],[1,0.5]];portConstraint=eastwest;whiteSpace=wrap;html=1;" vertex="1" parent="4oo5xsjGP5_QkXPqTpkd-26">
          <mxGeometry y="78" width="140" height="26" as="geometry" />
        </mxCell>
        <mxCell id="4oo5xsjGP5_QkXPqTpkd-28" value="+getPrecio()" style="text;strokeColor=none;fillColor=none;align=left;verticalAlign=top;spacingLeft=4;spacingRight=4;overflow=hidden;rotatable=0;points=[[0,0.5],[1,0.5]];portConstraint=eastwest;whiteSpace=wrap;html=1;" vertex="1" parent="4oo5xsjGP5_QkXPqTpkd-26">
          <mxGeometry y="104" width="140" height="26" as="geometry" />
        </mxCell>
        <mxCell id="4oo5xsjGP5_QkXPqTpkd-32" value="" style="endArrow=block;endSize=16;endFill=0;html=1;rounded=0;" edge="1" parent="1" source="4oo5xsjGP5_QkXPqTpkd-21" target="4oo5xsjGP5_QkXPqTpkd-26">
          <mxGeometry width="160" relative="1" as="geometry">
            <mxPoint x="480" y="310" as="sourcePoint" />
            <mxPoint x="640" y="310" as="targetPoint" />
          </mxGeometry>
        </mxCell>
        <mxCell id="4oo5xsjGP5_QkXPqTpkd-33" value="" style="endArrow=block;endSize=16;endFill=0;html=1;rounded=0;" edge="1" parent="1" source="4oo5xsjGP5_QkXPqTpkd-9" target="4oo5xsjGP5_QkXPqTpkd-26">
          <mxGeometry width="160" relative="1" as="geometry">
            <mxPoint x="535" y="264" as="sourcePoint" />
            <mxPoint x="414" y="440" as="targetPoint" />
          </mxGeometry>
        </mxCell>
        <mxCell id="4oo5xsjGP5_QkXPqTpkd-34" value="" style="endArrow=block;endSize=16;endFill=0;html=1;rounded=0;" edge="1" parent="1" source="4oo5xsjGP5_QkXPqTpkd-5" target="4oo5xsjGP5_QkXPqTpkd-26">
          <mxGeometry width="160" relative="1" as="geometry">
            <mxPoint x="545" y="274" as="sourcePoint" />
            <mxPoint x="424" y="450" as="targetPoint" />
          </mxGeometry>
        </mxCell>
        <mxCell id="4oo5xsjGP5_QkXPqTpkd-35" value="" style="endArrow=block;endSize=16;endFill=0;html=1;rounded=0;" edge="1" parent="1" source="4oo5xsjGP5_QkXPqTpkd-12" target="4oo5xsjGP5_QkXPqTpkd-21">
          <mxGeometry width="160" relative="1" as="geometry">
            <mxPoint x="555" y="284" as="sourcePoint" />
            <mxPoint x="434" y="460" as="targetPoint" />
          </mxGeometry>
        </mxCell>
        <mxCell id="4oo5xsjGP5_QkXPqTpkd-36" value="" style="endArrow=block;endSize=16;endFill=0;html=1;rounded=0;" edge="1" parent="1" source="4oo5xsjGP5_QkXPqTpkd-15" target="4oo5xsjGP5_QkXPqTpkd-21">
          <mxGeometry width="160" relative="1" as="geometry">
            <mxPoint x="565" y="294" as="sourcePoint" />
            <mxPoint x="444" y="470" as="targetPoint" />
          </mxGeometry>
        </mxCell>
        <mxCell id="4oo5xsjGP5_QkXPqTpkd-37" value="" style="endArrow=block;endSize=16;endFill=0;html=1;rounded=0;" edge="1" parent="1" source="4oo5xsjGP5_QkXPqTpkd-18" target="4oo5xsjGP5_QkXPqTpkd-21">
          <mxGeometry width="160" relative="1" as="geometry">
            <mxPoint x="575" y="304" as="sourcePoint" />
            <mxPoint x="454" y="480" as="targetPoint" />
          </mxGeometry>
        </mxCell>
      </root>
    </mxGraphModel>
  </diagram>
</mxfile>
